<svg xmlns="http://www.w3.org/2000/svg" width="900" height="560" viewBox="0 0 900 560" role="img" aria-label="Abstract contact and web design workspace illustration">
  <defs>
    <linearGradient id="contactBg" x1="0" y1="0" x2="1" y2="1">
      <stop offset="0%" stop-color="#151922"/>
      <stop offset="100%" stop-color="#0b0c0f"/>
    </linearGradient>
  </defs>
  <rect width="900" height="560" rx="34" fill="url(#contactBg)"/>
  <circle cx="735" cy="105" r="130" fill="#d6b25e" opacity=".14"/>
  <circle cx="112" cy="520" r="165" fill="#ffffff" opacity=".05"/>
  <rect x="95" y="90" width="710" height="380" rx="26" fill="#101217" stroke="#343946" stroke-width="2"/>
  <rect x="135" y="130" width="245" height="300" rx="18" fill="#1e242e"/>
  <rect x="420" y="143" width="290" height="26" rx="13" fill="#f6f3ea" opacity=".9"/>
  <rect x="420" y="200" width="340" height="18" rx="9" fill="#8b919c" opacity=".65"/>
  <rect x="420" y="240" width="305" height="18" rx="9" fill="#8b919c" opacity=".45"/>
  <rect x="420" y="292" width="250" height="72" rx="16" fill="#191e27" stroke="#343946"/>
  <rect x="420" y="390" width="150" height="46" rx="23" fill="#d6b25e"/>
  <text x="495" y="421" text-anchor="middle" font-family="Arial, Helvetica, sans-serif" font-size="18" font-weight="700" fill="#111318">SEND</text>
  <path d="M190 285l87 62 87-62" fill="none" stroke="#d6b25e" stroke-width="12" stroke-linecap="round" stroke-linejoin="round"/>
  <rect x="168" y="228" width="218" height="154" rx="22" fill="none" stroke="#d6b25e" stroke-width="12"/>
</svg>