<svg xmlns="http://www.w3.org/2000/svg" width="1200" height="780" viewBox="0 0 1200 780" role="img" aria-label="Sea Turtles">
  <defs>
    <linearGradient id="bg" x1="0" y1="0" x2="1" y2="1">
      <stop offset="0%" stop-color="#14171d"/>
      <stop offset="55%" stop-color="#1f242d"/>
      <stop offset="100%" stop-color="#0c0d10"/>
    </linearGradient>
    <filter id="shadow" x="-20%" y="-20%" width="140%" height="140%">
      <feDropShadow dx="0" dy="22" stdDeviation="22" flood-color="#000000" flood-opacity=".35"/>
    </filter>
  </defs>
  <rect width="1200" height="780" rx="44" fill="url(#bg)"/>
  <circle cx="1040" cy="120" r="210" fill="#74c7b8" opacity=".11"/>
  <circle cx="110" cy="700" r="230" fill="#ffffff" opacity=".05"/>
  <rect x="92" y="100" width="1016" height="580" rx="34" fill="#101217" stroke="#343946" stroke-width="2" filter="url(#shadow)"/>
  <rect x="128" y="142" width="944" height="72" rx="18" fill="#191e27"/>
  <circle cx="168" cy="178" r="10" fill="#d6b25e"/>
  <circle cx="202" cy="178" r="10" fill="#777d89"/>
  <circle cx="236" cy="178" r="10" fill="#4d5360"/>
  <rect x="128" y="258" width="390" height="290" rx="24" fill="#1e242e" stroke="#343946"/>
  <text x="323" y="430" text-anchor="middle" font-family="Arial, Helvetica, sans-serif" font-size="82" font-weight="700" fill="#74c7b8">ST</text>
  <rect x="572" y="280" width="400" height="24" rx="12" fill="#f6f3ea" opacity=".92"/>
  <rect x="572" y="330" width="500" height="18" rx="9" fill="#8b919c" opacity=".75"/>
  <rect x="572" y="370" width="450" height="18" rx="9" fill="#8b919c" opacity=".55"/>
  <rect x="572" y="472" width="190" height="52" rx="26" fill="#74c7b8"/>
  <text x="667" y="506" text-anchor="middle" font-family="Arial, Helvetica, sans-serif" font-size="20" font-weight="700" fill="#111318">VIEW PROJECT</text>
  <text x="128" y="625" font-family="Arial, Helvetica, sans-serif" font-size="38" font-weight="700" fill="#f6f3ea">Sea Turtles</text>
  <text x="128" y="664" font-family="Arial, Helvetica, sans-serif" font-size="22" fill="#b8bdc7">Responsive conservation page</text>
</svg>